<?xml version="1.0" standalone="no"?>
<!DOCTYPE svg PUBLIC "-//W3C//DTD SVG 20010904//EN"
 "http://www.w3.org/TR/2001/REC-SVG-20010904/DTD/svg10.dtd">
<svg version="1.0" xmlns="http://www.w3.org/2000/svg"
 width="1000.000000pt" height="1000.000000pt" viewBox="0 0 1000.000000 1000.000000"
 preserveAspectRatio="xMidYMid meet">
<metadata>
Created by potrace 1.11, written by Peter Selinger 2001-2013
</metadata>
<g transform="translate(0.000000,1000.000000) scale(0.100000,-0.100000)"
fill="#000000" stroke="none">
<path d="M7565 9254 c-33 -14 -77 -33 -97 -41 -21 -9 -38 -21 -38 -27 0 -6
-23 -35 -51 -65 -27 -30 -55 -64 -61 -75 -6 -12 -97 -134 -202 -273 -105 -139
-213 -284 -239 -323 -27 -39 -58 -76 -70 -81 -12 -6 -46 -48 -74 -93 -29 -46
-92 -137 -140 -202 -47 -66 -115 -162 -151 -214 -45 -67 -76 -101 -104 -116
-22 -13 -56 -47 -80 -80 -22 -33 -120 -165 -217 -294 -97 -129 -197 -267 -221
-307 -25 -40 -50 -72 -56 -73 -13 0 -64 -55 -89 -95 -24 -39 -106 -139 -117
-143 -4 -2 -15 -16 -23 -31 -21 -42 -205 -284 -226 -299 -11 -7 -19 -18 -19
-24 0 -6 -16 -28 -35 -49 -19 -21 -45 -60 -59 -87 -13 -26 -31 -54 -40 -61 -9
-7 -14 -16 -12 -20 3 -4 -10 -15 -28 -25 -33 -17 -66 -62 -66 -88 0 -8 -14
-27 -31 -44 -18 -16 -62 -69 -99 -119 -37 -49 -100 -130 -139 -180 -50 -63
-67 -91 -58 -97 8 -6 5 -10 -11 -14 -22 -6 -111 -137 -116 -171 -2 -10 -18
-28 -37 -41 -45 -30 -66 -52 -52 -52 6 0 13 6 16 13 2 6 7 9 11 6 4 -3 -18
-24 -47 -47 -34 -25 -62 -57 -75 -84 -11 -24 -45 -72 -76 -107 -31 -35 -61
-77 -68 -92 -16 -36 -28 -41 -113 -45 -38 -2 -160 -13 -269 -24 -110 -11 -254
-23 -320 -26 -67 -3 -143 -10 -171 -15 -27 -5 -120 -13 -205 -18 -85 -5 -176
-15 -201 -21 -44 -11 -48 -15 -77 -78 -28 -59 -47 -125 -51 -172 -1 -8 -4 -34
-7 -56 -3 -25 1 -74 11 -119 l18 -78 176 6 c97 4 289 15 426 26 138 11 276 22
308 25 l57 4 -25 -20 c-18 -14 -24 -26 -20 -39 4 -13 2 -19 -8 -19 -10 0 -13
-7 -10 -18 3 -13 -9 -29 -39 -54 -24 -19 -83 -90 -133 -156 -49 -67 -99 -124
-110 -127 -12 -4 -15 -8 -8 -11 17 -7 -5 -54 -26 -55 -19 0 -77 -112 -67 -128
4 -6 -3 -15 -17 -20 -16 -6 -44 -42 -78 -98 -28 -48 -67 -106 -84 -128 -18
-22 -33 -43 -33 -48 -2 -18 -39 -73 -67 -99 -16 -15 -24 -28 -17 -28 20 0 14
-16 -14 -30 -25 -14 -63 -70 -47 -70 4 0 -8 -11 -28 -24 -20 -14 -42 -40 -49
-58 -14 -35 -115 -190 -176 -270 -28 -37 -32 -48 -19 -48 14 0 12 -5 -9 -31
-14 -17 -26 -36 -26 -43 0 -7 -11 -25 -25 -40 -14 -15 -22 -32 -19 -38 3 -5
-7 -24 -23 -41 -37 -41 -93 -122 -93 -136 0 -9 -42 -63 -114 -145 -19 -21 -58
-92 -86 -157 -42 -95 -58 -123 -81 -135 -16 -8 -29 -21 -29 -28 0 -7 -8 -24
-19 -37 -10 -13 -16 -30 -14 -37 3 -6 -16 -39 -41 -73 -25 -34 -46 -68 -46
-76 0 -9 -13 -31 -30 -49 -16 -19 -53 -77 -81 -131 -29 -53 -66 -111 -82 -130
-16 -18 -24 -33 -18 -33 21 0 11 -26 -19 -48 -16 -13 -30 -29 -30 -37 0 -8 -9
-19 -20 -25 -11 -6 -20 -17 -20 -26 0 -8 -11 -37 -25 -64 -14 -27 -25 -56 -25
-64 0 -8 -16 -23 -35 -35 -34 -19 -46 -41 -25 -41 7 0 7 -6 0 -19 -16 -30 -12
-43 10 -36 10 3 32 0 47 -8 44 -22 89 -29 228 -33 134 -4 223 7 263 32 19 13
22 13 22 -1 0 -19 18 -15 99 21 71 32 184 147 230 234 19 35 47 75 63 88 15
13 28 32 28 43 0 10 14 28 30 41 17 12 30 27 30 34 0 7 8 15 18 18 12 4 18 16
17 34 0 18 5 26 15 25 19 -3 54 54 37 60 -11 4 -2 9 36 21 13 4 29 33 43 81 6
20 23 37 47 50 21 11 65 55 102 103 36 45 67 82 70 82 8 0 -40 -73 -106 -166
-33 -44 -59 -84 -59 -87 0 -15 30 7 35 26 4 12 47 61 96 108 67 66 89 93 89
113 0 16 -5 26 -15 26 -8 0 -15 3 -15 6 0 3 42 53 92 112 51 58 87 107 81 109
-12 4 51 73 66 73 5 0 25 22 44 48 20 26 83 101 141 167 59 66 125 148 149
182 23 34 47 63 54 63 21 0 26 21 9 39 -14 15 -14 19 0 32 24 24 7 49 -33 49
-26 0 -36 -5 -40 -20 -3 -11 -9 -20 -14 -20 -15 0 -10 23 10 44 14 15 17 30
14 54 -5 32 -8 34 -36 28 -24 -5 -27 -4 -18 8 9 11 7 15 -11 19 -21 6 -21 7
-5 25 9 10 17 26 17 36 0 9 11 21 25 26 14 5 25 12 25 14 0 3 -8 2 -17 -1 -16
-6 -16 -5 -4 10 7 9 25 17 40 17 25 1 25 1 6 16 -19 14 -18 16 36 64 60 52 93
107 83 135 -5 11 6 30 33 58 21 23 77 99 122 169 46 70 88 125 93 122 5 -3 8
0 6 8 -4 17 109 198 123 198 5 0 14 12 19 26 6 14 30 49 53 78 52 61 99 131
123 182 10 21 46 68 80 104 38 40 60 71 55 78 -11 19 -46 -11 -93 -81 -23 -34
-55 -80 -72 -101 -17 -22 -31 -45 -31 -51 0 -6 -27 -41 -60 -79 -33 -37 -82
-100 -110 -140 -27 -40 -69 -98 -92 -127 -22 -30 -58 -85 -79 -124 -21 -38
-57 -92 -80 -120 -46 -55 -90 -119 -184 -270 -35 -55 -83 -126 -107 -157 -23
-31 -43 -61 -43 -67 0 -14 -38 -33 -50 -26 -12 8 -13 35 -2 35 16 0 82 71 82
87 0 8 13 31 30 50 17 18 30 43 30 53 0 11 12 30 26 43 14 12 35 40 46 62 20
38 20 39 2 25 -10 -8 0 6 22 31 41 44 74 100 74 126 0 7 25 38 55 68 33 32 55
63 55 76 0 12 23 44 58 78 56 57 86 110 76 136 -5 13 54 65 74 65 7 0 12 11
12 25 0 16 6 25 15 25 8 0 15 6 15 14 0 8 9 18 21 21 12 4 30 26 41 53 12 26
32 55 45 65 13 11 22 25 19 32 -6 17 21 55 40 55 8 0 14 10 14 24 0 15 18 41
50 73 32 33 48 56 44 66 -3 8 -1 18 5 21 15 10 82 -4 75 -15 -8 -14 8 -10 26
6 12 11 64 20 166 30 82 8 167 18 189 21 22 4 76 8 120 8 52 1 91 7 112 18 25
12 50 15 119 10 71 -4 86 -3 82 9 -3 8 -16 13 -29 12 -74 -7 -249 -9 -249 -2
0 11 41 17 215 29 88 7 167 14 175 17 8 4 19 5 23 4 5 -1 25 3 44 8 24 7 42 7
55 0 14 -7 23 -7 34 1 8 8 27 10 49 6 21 -4 68 1 125 15 66 15 94 18 104 10 9
-8 38 -7 102 3 145 23 203 28 235 21 24 -6 28 -9 18 -21 -6 -8 -24 -14 -40
-14 -16 0 -29 -4 -29 -10 0 -5 21 -10 46 -10 l46 0 -16 -25 c-12 -18 -13 -30
-6 -50 5 -14 6 -25 1 -25 -4 0 -11 -26 -15 -57 -3 -32 -14 -111 -24 -176 -16
-103 -22 -121 -48 -148 -22 -23 -26 -32 -15 -38 10 -7 11 -13 1 -31 -6 -12
-10 -40 -8 -61 2 -25 -1 -40 -9 -43 -7 -3 -13 -16 -13 -29 0 -14 -7 -30 -15
-37 -10 -8 -12 -17 -6 -24 10 -13 2 -76 -10 -76 -5 0 -9 -8 -9 -17 0 -10 -7
-27 -15 -37 -10 -13 -12 -23 -5 -32 11 -13 -20 -145 -46 -196 -8 -15 -11 -34
-8 -42 4 -9 1 -23 -6 -31 -6 -8 -9 -19 -5 -24 3 -6 -1 -22 -10 -35 -9 -14 -15
-33 -13 -44 2 -10 -3 -27 -11 -36 -12 -14 -12 -19 -2 -26 10 -6 8 -14 -9 -38
-22 -29 -25 -42 -28 -119 -1 -17 -9 -38 -17 -46 -8 -8 -11 -17 -8 -21 3 -3 -2
-15 -12 -26 -10 -11 -20 -32 -21 -45 -1 -14 -10 -39 -18 -57 -20 -39 -20 -38
4 -38 21 0 21 0 2 -21 -36 -37 -55 -121 -49 -212 8 -122 10 -125 72 -132 41
-6 70 -2 138 19 184 56 391 150 458 208 38 33 48 57 69 168 10 54 25 111 33
126 11 21 12 34 3 55 -8 23 -7 39 8 76 22 57 30 214 10 206 -16 -6 -5 50 11
59 10 6 11 19 3 50 -5 24 -7 50 -5 60 3 9 0 19 -6 21 -7 2 3 21 22 45 30 39
31 42 12 42 -26 0 -27 8 -3 27 12 10 14 16 5 19 -9 4 -5 16 13 40 15 19 21 34
15 34 -7 0 -9 5 -6 10 3 6 0 16 -7 24 -11 11 -16 11 -26 -1 -7 -7 -18 -13 -24
-13 -7 0 -4 6 5 12 19 14 7 46 -12 34 -6 -4 -9 -11 -6 -16 3 -5 -4 -14 -15
-20 -23 -12 -26 -3 -8 35 12 26 19 27 61 10 10 -4 17 -3 17 4 0 6 -11 13 -25
17 -13 3 -29 12 -36 20 -9 11 -7 14 9 14 11 0 27 -7 35 -15 13 -13 16 -13 21
1 7 19 -2 37 -15 29 -5 -4 -9 1 -9 9 0 8 9 20 20 26 25 14 25 22 -1 38 -25 16
-37 8 -20 -12 10 -12 8 -17 -9 -26 -28 -15 -33 -9 -20 24 13 35 13 76 -1 76
-5 0 -7 -4 -4 -10 3 -5 -3 -10 -15 -10 -31 0 -19 24 14 28 17 2 30 12 35 25
10 28 33 208 27 214 -2 2 -14 -6 -26 -19 l-22 -23 7 25 c22 73 39 94 100 118
65 26 71 29 63 37 -3 3 -24 -2 -47 -10 l-43 -15 4 40 c2 29 -1 40 -12 44 -8 2
-2 4 13 5 23 1 27 4 22 21 -6 20 10 61 23 58 4 -1 16 3 28 9 11 7 39 12 63 11
25 0 49 6 60 16 24 22 116 23 107 0 -3 -8 -2 -12 4 -9 6 3 10 12 10 20 0 14
22 25 48 25 12 -1 10 -5 -8 -15 -14 -7 -25 -22 -25 -32 0 -13 -7 -17 -22 -16
-14 2 -27 -5 -33 -17 -6 -11 -24 -27 -40 -35 -34 -18 -44 -19 -35 -5 3 6 -3
10 -14 10 -11 0 -23 -4 -26 -10 -3 -6 -2 -10 4 -10 6 0 8 -7 4 -15 -4 -13 4
-12 47 5 29 11 55 19 57 16 9 -9 -61 -46 -97 -52 -19 -3 -45 -13 -58 -21 -27
-17 -20 -38 8 -23 10 5 32 10 49 10 17 0 53 9 81 20 28 11 62 20 75 20 13 0
27 5 30 10 3 6 24 10 46 10 49 0 44 -15 -8 -24 -47 -7 -146 -53 -140 -63 3 -5
-7 -9 -21 -10 -67 -4 -100 -11 -131 -27 -18 -10 -31 -19 -29 -21 2 -2 39 5 81
17 72 20 110 19 77 -2 -30 -19 7 -9 106 30 56 22 111 40 122 40 11 0 23 8 26
17 6 15 8 15 22 1 14 -14 20 -14 43 -2 14 7 80 25 146 40 131 29 298 86 330
113 11 10 32 25 47 34 14 9 29 25 33 36 3 10 19 24 36 31 35 15 103 89 130
143 11 20 27 65 35 100 9 34 25 74 36 89 12 17 17 36 13 48 -3 10 -1 28 5 40
7 13 7 20 0 20 -5 0 -10 7 -10 15 0 9 -25 22 -69 35 -90 26 -439 40 -578 22
-48 -7 -155 -17 -236 -22 -82 -6 -168 -15 -192 -19 -68 -13 -102 -3 -120 32
-14 29 -14 32 6 53 20 21 20 24 5 30 -33 12 -15 24 37 23 38 -1 45 -3 27 -8
-14 -4 -27 -16 -29 -26 -3 -17 -2 -18 15 -5 16 14 17 13 11 -3 -4 -10 -7 -22
-7 -27 0 -5 -8 -11 -17 -13 -14 -4 -12 -5 5 -6 14 -1 22 5 22 14 0 9 7 27 16
40 9 14 13 32 10 41 -4 9 4 28 19 46 28 33 34 88 10 88 -8 0 -15 5 -15 10 0 6
11 10 25 10 25 0 26 3 40 72 2 11 -5 18 -19 21 -20 3 -20 4 3 14 14 5 20 12
14 16 -7 5 -8 20 -2 48 5 22 7 44 4 50 -4 5 1 9 9 9 9 0 16 8 16 19 0 11 16
49 35 86 30 56 36 77 36 131 1 42 5 64 12 64 8 0 8 3 -1 8 -9 7 -7 19 12 54
13 24 27 63 31 86 4 23 10 44 15 47 4 2 5 15 3 27 -3 14 6 36 21 57 14 19 23
38 20 43 -3 5 2 18 11 28 11 13 16 32 14 64 -2 33 2 51 15 65 14 16 17 30 13
60 -3 22 -1 41 4 43 5 2 11 22 13 45 3 23 9 50 15 61 9 18 42 125 61 198 4 18
19 47 34 66 26 35 26 35 6 53 -18 16 -18 19 -3 49 8 17 25 42 37 55 20 23 20
24 1 17 -19 -6 -19 -5 1 11 22 18 42 70 42 108 0 28 56 243 76 289 9 21 16 49
16 61 0 13 12 38 28 56 24 29 27 40 24 93 -2 55 0 62 27 87 22 20 31 39 36 75
3 27 14 72 25 99 20 55 28 88 38 155 4 25 20 66 36 93 20 33 26 55 22 72 -5
19 -2 25 9 25 21 0 30 27 15 45 -10 12 -10 18 -1 29 7 8 14 34 16 58 2 24 8
56 14 71 6 16 11 46 11 67 0 31 -3 38 -15 34 -21 -9 -19 5 17 100 l33 84 66
21 c79 25 128 56 149 94 15 26 14 28 -17 53 -35 27 -40 43 -21 74 15 24 7 33
-32 34 -29 1 -37 15 -31 62 4 33 -288 41 -411 12 -46 -11 -50 -11 -108 19 -3
1 -32 -9 -65 -23z m410 -574 c-4 -12 -9 -19 -12 -17 -3 3 -2 15 2 27 4 12 9
19 12 17 3 -3 2 -15 -2 -27z m-93 -252 c-7 -7 -12 -8 -12 -2 0 14 12 26 19 19
2 -3 -1 -11 -7 -17z m-60 -190 c-7 -7 -12 -8 -12 -2 0 14 12 26 19 19 2 -3 -1
-11 -7 -17z m-44 -310 c-5 -14 -80 -60 -86 -53 -2 2 -1 13 3 24 4 14 15 21 30
21 13 0 27 5 30 10 9 14 27 12 23 -2z m-893 -408 c-3 -5 -15 -10 -26 -10 -11
0 -17 5 -14 10 3 6 15 10 26 10 11 0 17 -4 14 -10z m75 -44 c0 -8 -5 -18 -11
-22 -6 -3 -8 -16 -5 -28 3 -13 -3 -39 -13 -59 -10 -20 -22 -58 -26 -84 -8 -61
-32 -165 -50 -223 -7 -25 -17 -65 -21 -90 -3 -25 -13 -57 -20 -72 -8 -15 -14
-41 -14 -57 0 -17 -4 -40 -9 -53 -22 -55 -52 -180 -47 -193 3 -8 -1 -32 -8
-52 -7 -21 -17 -65 -21 -98 -4 -33 -12 -68 -17 -79 -6 -10 -11 -31 -13 -45 -1
-14 -8 -48 -15 -76 -6 -27 -13 -61 -14 -74 -1 -13 -9 -29 -18 -35 -9 -7 -15
-30 -16 -61 -3 -76 -12 -123 -28 -136 -10 -8 -14 -33 -14 -79 0 -51 -5 -73
-19 -91 -16 -21 -18 -34 -12 -99 7 -70 6 -77 -20 -114 -21 -32 -25 -45 -18
-68 5 -21 2 -41 -12 -74 -11 -25 -24 -84 -29 -132 -6 -48 -10 -87 -10 -87 0
-1 -17 -2 -37 -3 -20 -2 -43 -8 -50 -14 -10 -8 -13 -7 -13 3 0 11 -2 11 -10
-1 -8 -12 -12 -12 -18 -2 -7 10 -26 11 -98 2 -49 -6 -107 -16 -128 -21 -30 -8
-41 -8 -47 3 -7 10 -9 8 -9 -6 0 -14 -5 -17 -22 -12 -64 18 -142 17 -281 -3
-81 -12 -165 -21 -185 -21 -20 0 -98 -9 -172 -19 -74 -11 -175 -22 -223 -26
l-88 -7 27 44 c15 23 56 81 92 128 36 47 111 144 165 215 55 72 115 147 133
168 19 20 34 45 34 54 0 9 12 29 27 45 30 31 28 45 -4 23 -23 -16 -193 -251
-238 -330 -16 -27 -63 -86 -105 -130 -41 -44 -95 -110 -120 -147 -34 -50 -52
-67 -73 -70 -15 -3 -30 -1 -33 4 -9 14 40 88 119 180 42 48 85 101 97 118 12
17 26 28 31 25 17 -11 31 6 18 21 -9 11 -6 16 15 25 14 7 26 18 26 26 0 31 66
127 107 156 24 17 43 37 43 44 0 7 16 31 36 53 21 23 31 40 23 40 -8 0 -1 13
17 28 16 16 28 34 26 40 -2 7 10 15 27 18 25 5 30 11 26 24 -3 10 -1 21 5 25
6 4 15 18 20 31 5 13 16 24 25 24 9 0 15 9 15 21 0 12 27 47 66 86 41 41 62
68 55 73 -7 4 12 28 49 64 43 41 59 63 55 75 -7 24 31 71 57 71 13 0 18 5 15
14 -3 8 10 26 33 45 21 16 48 51 60 76 12 25 33 53 46 64 13 10 24 24 24 30 0
6 4 11 9 11 5 0 40 45 77 100 70 105 100 134 150 146 28 6 28 6 9 -10 l-20
-17 20 3 c12 2 41 35 75 87 54 82 84 106 115 95 10 -4 15 0 15 12 1 23 16 43
50 68 19 14 20 17 5 12 -18 -7 -18 -5 3 17 12 13 19 26 16 30 -3 3 12 15 35
27 23 11 41 24 42 28 8 70 12 78 78 161 28 35 54 75 57 88 7 25 23 30 42 11 8
-8 15 -3 29 20 19 34 33 41 33 18z m115 -16 c-3 -5 -18 -10 -33 -9 l-27 1 25
8 c35 11 42 11 35 0z m5 -100 c-8 -5 -22 -10 -30 -10 -13 0 -13 1 0 10 8 5 22
10 30 10 13 0 13 -1 0 -10z m-38 -72 c-7 -7 -12 -8 -12 -2 0 14 12 26 19 19 2
-3 -1 -11 -7 -17z m8 -38 c0 -5 -4 -10 -10 -10 -5 0 -10 5 -10 10 0 6 5 10 10
10 6 0 10 -4 10 -10z m480 -26 c0 -2 -7 -4 -15 -4 -8 0 -15 4 -15 10 0 5 7 7
15 4 8 -4 15 -8 15 -10z m-500 -84 c0 -5 -4 -10 -9 -10 -6 0 -13 5 -16 10 -3
6 1 10 9 10 9 0 16 -4 16 -10z m-78 -42 c-7 -7 -12 -8 -12 -2 0 14 12 26 19
19 2 -3 -1 -11 -7 -17z m78 -14 c0 -2 -7 -4 -15 -4 -8 0 -15 4 -15 10 0 5 7 7
15 4 8 -4 15 -8 15 -10z m-65 -124 c3 -5 1 -10 -4 -10 -6 0 -11 5 -11 10 0 6
2 10 4 10 3 0 8 -4 11 -10z m-505 -8 c0 -5 -13 -21 -30 -37 -35 -33 -39 -26
-9 16 19 28 39 38 39 21z m498 -34 c-6 -18 -28 -21 -28 -4 0 9 7 16 16 16 9 0
14 -5 12 -12z m-568 -12 c0 -3 -4 -8 -10 -11 -5 -3 -10 -1 -10 4 0 6 5 11 10
11 6 0 10 -2 10 -4z m514 -21 c-4 -8 -7 -15 -9 -15 -2 0 -5 7 -9 15 -3 9 0 15
9 15 9 0 12 -6 9 -15z m43 -21 c-9 -9 -28 6 -21 18 4 6 10 6 17 -1 6 -6 8 -13
4 -17z m13 -58 c0 -3 -4 -8 -10 -11 -5 -3 -10 -1 -10 4 0 6 5 11 10 11 6 0 10
-2 10 -4z m-42 -37 c-20 -13 -38 -11 -38 5 0 9 8 12 26 8 19 -3 22 -7 12 -13z
m367 1 c-3 -5 -11 -10 -16 -10 -6 0 -7 5 -4 10 3 6 11 10 16 10 6 0 7 -4 4
-10z m-375 -50 c0 -5 -4 -10 -9 -10 -6 0 -13 5 -16 10 -3 6 1 10 9 10 9 0 16
-4 16 -10z m490 6 c0 -3 -4 -8 -10 -11 -5 -3 -10 -1 -10 4 0 6 5 11 10 11 6 0
10 -2 10 -4z m-503 -82 c-9 -10 -38 16 -31 28 4 6 13 4 22 -6 9 -8 13 -19 9
-22z m-80 -16 c-3 -8 -6 -5 -6 6 -1 11 2 17 5 13 3 -3 4 -12 1 -19z m66 -22
c6 -16 -18 -54 -28 -45 -8 9 5 59 15 59 4 0 10 -6 13 -14z m214 -68 c-3 -8 -6
-5 -6 6 -1 11 2 17 5 13 3 -3 4 -12 1 -19z m-237 2 c-19 -13 -30 -13 -30 0 0
6 10 10 23 10 18 0 19 -2 7 -10z m30 -14 c0 -3 -4 -8 -10 -11 -5 -3 -10 -1
-10 4 0 6 5 11 10 11 6 0 10 -2 10 -4z m-40 -46 c0 -5 -5 -10 -11 -10 -5 0 -7
5 -4 10 3 6 8 10 11 10 2 0 4 -4 4 -10z m-1185 -20 c3 -5 1 -10 -4 -10 -6 0
-11 5 -11 10 0 6 2 10 4 10 3 0 8 -4 11 -10z m1675 -30 c0 -5 -4 -10 -10 -10
-5 0 -10 5 -10 10 0 6 5 10 10 10 6 0 10 -4 10 -10z m-492 -74 c4 -19 -22 -46
-42 -46 -6 0 -3 7 7 15 18 13 18 14 -4 25 -17 10 -19 14 -8 21 21 13 43 6 47
-15z m212 -10 c0 -3 -4 -8 -10 -11 -5 -3 -10 -1 -10 4 0 6 5 11 10 11 6 0 10
-2 10 -4z m-264 -118 c-9 -5 -21 -6 -28 -2 -8 5 -5 10 8 14 25 10 41 0 20 -12z
m108 -20 c-4 -6 -10 -5 -15 3 -14 22 -10 33 6 19 8 -7 12 -17 9 -22z m166 -18
c0 -5 -4 -10 -10 -10 -5 0 -10 5 -10 10 0 6 5 10 10 10 6 0 10 -4 10 -10z
m-1335 -50 c3 -5 2 -10 -4 -10 -5 0 -13 5 -16 10 -3 6 -2 10 4 10 5 0 13 -4
16 -10z m-395 -24 c0 -2 -7 -7 -16 -10 -8 -3 -12 -2 -9 4 6 10 25 14 25 6z
m315 -56 c3 -5 -1 -10 -9 -10 -8 0 -18 5 -21 10 -3 6 1 10 9 10 8 0 18 -4 21
-10z m1101 -27 c-8 -15 -15 -22 -16 -15 0 17 20 55 27 49 2 -3 -2 -18 -11 -34z
m-13 -80 c-7 -2 -21 -2 -30 0 -10 3 -4 5 12 5 17 0 24 -2 18 -5z m427 -7 c0
-2 -7 -7 -16 -10 -8 -3 -12 -2 -9 4 6 10 25 14 25 6z m-1895 -16 c-3 -5 -10
-10 -16 -10 -5 0 -9 5 -9 10 0 6 7 10 16 10 8 0 12 -4 9 -10z m-75 -27 c0 -13
-33 -43 -48 -43 -12 0 -10 6 8 25 23 24 40 32 40 18z m315 -53 c-3 -5 -13 -10
-21 -10 -8 0 -12 5 -9 10 3 6 13 10 21 10 8 0 12 -4 9 -10z m1581 -137 c-11
-11 -17 4 -9 23 7 18 8 18 11 1 2 -10 1 -21 -2 -24z m-21 -53 c3 -5 2 -10 -4
-10 -5 0 -13 5 -16 10 -3 6 -2 10 4 10 5 0 13 -4 16 -10z m-1738 -35 c0 -8 -6
-15 -14 -15 -14 0 -17 12 -6 23 11 11 20 8 20 -8z m1723 6 c0 -5 -7 -11 -15
-15 -15 -5 -20 5 -8 17 9 10 23 9 23 -2z m-397 -78 c-21 -16 -24 -13 -17 14 5
18 9 19 19 10 12 -10 11 -14 -2 -24z m410 15 c-18 -6 -33 -15 -33 -19 0 -5 -9
-9 -21 -9 -11 0 -18 -4 -15 -8 2 -4 0 -14 -5 -22 -7 -11 -8 -9 -6 9 2 14 9 27
15 29 7 2 12 10 12 18 0 10 12 14 43 13 l42 -1 -32 -10z m-406 -44 c-3 -3 -12
-4 -19 -1 -8 3 -5 6 6 6 11 1 17 -2 13 -5z m-13 -39 c-4 -8 -10 -15 -15 -15
-5 0 -9 7 -9 15 0 8 7 15 15 15 9 0 12 -6 9 -15z m-1499 -45 c-3 -5 -11 -10
-16 -10 -6 0 -7 5 -4 10 3 6 11 10 16 10 6 0 7 -4 4 -10z m1729 -25 c3 -8 -3
-19 -14 -25 -28 -15 -31 -13 -18 15 13 28 23 32 32 10z m136 11 c0 -2 -7 -6
-15 -10 -8 -3 -15 -1 -15 4 0 6 7 10 15 10 8 0 15 -2 15 -4z m-1874 -51 c-28
-26 -42 -33 -31 -15 3 6 1 10 -6 10 -18 0 1 17 26 23 37 9 38 7 11 -18z m1584
5 c0 -5 -5 -10 -11 -10 -5 0 -7 5 -4 10 3 6 8 10 11 10 2 0 4 -4 4 -10z m145
-49 c-6 -5 -21 -12 -35 -15 l-25 -7 25 15 c28 17 50 21 35 7z m53 -9 c2 -7 -3
-12 -12 -12 -19 0 -21 -16 -3 -23 6 -2 9 -8 5 -12 -4 -4 -14 -3 -22 4 -11 9
-11 17 -2 36 11 25 27 28 34 7z m-1823 -32 c-3 -5 -11 -10 -16 -10 -6 0 -7 5
-4 10 3 6 11 10 16 10 6 0 7 -4 4 -10z m1615 -10 c0 -5 -7 -10 -15 -10 -8 0
-15 5 -15 10 0 6 7 10 15 10 8 0 15 -4 15 -10z m-1660 -30 c0 -5 -2 -10 -4
-10 -3 0 -8 5 -11 10 -3 6 -1 10 4 10 6 0 11 -4 11 -10z m-610 -20 c0 -5 -5
-10 -11 -10 -5 0 -7 5 -4 10 3 6 8 10 11 10 2 0 4 -4 4 -10z m1815 -360 c-3
-5 -11 -10 -16 -10 -6 0 -7 5 -4 10 3 6 11 10 16 10 6 0 7 -4 4 -10z m826
-103 c-10 -9 -11 -8 -5 6 3 10 9 15 12 12 3 -3 0 -11 -7 -18z m-31 -2 c0 -8
-7 -15 -15 -15 -9 0 -12 6 -9 15 4 8 10 15 15 15 5 0 9 -7 9 -15z m-55 -5 c-3
-5 -22 -12 -43 -16 -20 -4 -40 -12 -44 -18 -6 -8 -10 -7 -16 2 -7 10 -19 11
-50 3 -23 -5 -42 -5 -42 -1 0 17 27 25 105 31 44 3 84 6 88 7 5 1 6 -2 2 -8z
m-255 -10 c0 -5 -4 -10 -9 -10 -6 0 -13 5 -16 10 -3 6 1 10 9 10 9 0 16 -4 16
-10z m-135 -13 c25 -19 5 -30 -41 -21 -34 6 -36 8 -19 20 24 17 36 18 60 1z
m-105 -5 c0 -11 -22 -32 -32 -32 -5 0 -4 9 2 20 11 20 30 28 30 12z m352 -34
c3 -8 12 -9 35 0 17 5 34 8 37 5 13 -13 5 -22 -25 -28 -18 -4 -50 -16 -73 -26
-55 -25 -66 -24 -66 7 0 23 -2 25 -15 14 -18 -15 -30 -7 -22 14 6 14 11 14 48
1 23 -9 44 -13 47 -10 3 3 0 5 -8 5 -10 0 -10 3 0 15 15 18 37 20 42 3z m109
-11 c-1 -12 -15 -9 -19 4 -3 6 1 10 8 8 6 -3 11 -8 11 -12z m-361 -17 c0 -5
-4 -10 -10 -10 -5 0 -10 5 -10 10 0 6 5 10 10 10 6 0 10 -4 10 -10z m124 -42
c8 -32 7 -48 -2 -48 -12 0 -30 42 -25 58 7 19 20 14 27 -10z m-164 -12 c0 -7
-8 -20 -17 -27 -16 -13 -17 -12 -5 3 8 9 11 22 7 28 -3 5 -1 10 4 10 6 0 11
-6 11 -14z m-1451 -6 c-24 -14 -106 -25 -94 -12 10 11 43 19 85 20 20 1 22 0
9 -8z m1976 0 c-3 -5 -11 -10 -16 -10 -6 0 -7 5 -4 10 3 6 11 10 16 10 6 0 7
-4 4 -10z m-2250 -30 c3 -5 -3 -10 -15 -10 -12 0 -18 5 -15 10 3 6 10 10 15
10 5 0 12 -4 15 -10z m1722 -16 c-3 -3 -12 -4 -19 -1 -8 3 -5 6 6 6 11 1 17
-2 13 -5z m19 -80 c-3 -8 -10 -14 -16 -14 -14 0 -13 47 3 73 12 21 12 21 15
-11 2 -19 1 -40 -2 -48z m174 56 c0 -5 -4 -10 -10 -10 -5 0 -10 5 -10 10 0 6
5 10 10 10 6 0 10 -4 10 -10z m-70 -51 c-6 -19 -4 -29 3 -32 7 -2 9 -7 6 -11
-12 -13 -40 6 -33 23 3 9 6 23 6 31 0 8 2 22 4 30 9 28 22 -11 14 -41z m-218
9 c3 -36 -19 -94 -39 -102 -8 -3 -13 2 -13 12 0 10 -5 23 -11 29 -8 8 -5 13
10 18 16 5 21 15 21 41 0 46 27 47 32 2z m68 1 c0 -5 -7 -5 -17 -2 -11 4 -14
3 -9 -5 4 -7 14 -12 23 -12 13 0 13 -3 3 -15 -7 -8 -19 -15 -27 -15 -9 0 -13
6 -9 15 3 8 1 15 -3 15 -5 0 -4 11 2 24 9 18 15 22 24 14 7 -6 13 -14 13 -19z
m85 11 c3 -5 -1 -10 -9 -10 -9 0 -16 5 -16 10 0 6 4 10 9 10 6 0 13 -4 16 -10z
m-2510 -80 c-3 -5 -10 -10 -16 -10 -5 0 -9 5 -9 10 0 6 7 10 16 10 8 0 12 -4
9 -10z m2474 -17 c2 -2 -5 -3 -17 -3 -14 0 -22 6 -22 16 0 14 3 15 18 3 9 -7
19 -15 21 -16z m-44 -9 l26 -26 -26 -23 c-14 -13 -25 -19 -25 -14 0 6 -4 7
-10 4 -5 -3 -10 -15 -10 -26 0 -10 -5 -19 -11 -19 -8 0 -10 15 -5 46 4 34 3
44 -7 39 -6 -4 -4 0 6 8 9 8 17 19 17 26 0 18 17 13 45 -15z m140 6 c-3 -5
-11 -10 -16 -10 -6 0 -7 5 -4 10 3 6 11 10 16 10 6 0 7 -4 4 -10z m-2365 -5
c0 -2 -10 -9 -22 -15 -22 -11 -22 -10 -4 4 21 17 26 19 26 11z m90 -9 c0 -2
-8 -10 -17 -17 -16 -13 -17 -12 -4 4 13 16 21 21 21 13z m-400 -16 c0 -5 -8
-10 -17 -10 -15 0 -16 2 -3 10 19 12 20 12 20 0z m2654 -5 c-7 -16 -24 -21
-24 -6 0 8 7 13 27 20 1 1 0 -6 -3 -14z m-237 -18 c-6 -20 -26 -19 -24 1 1 12
6 18 14 15 8 -3 12 -10 10 -16z m138 -15 c16 -11 16 -32 1 -32 -7 0 -16 9 -19
20 -5 21 1 25 18 12z m75 -32 c0 -5 -4 -10 -10 -10 -5 0 -10 5 -10 10 0 6 5
10 10 10 6 0 10 -4 10 -10z m-226 -16 c10 -26 7 -54 -6 -54 -8 0 -14 15 -15
35 -2 36 10 47 21 19z m124 -14 c13 0 7 -93 -5 -97 -7 -3 -13 2 -13 11 0 9 -5
16 -10 16 -10 0 -9 14 7 78 4 20 7 22 10 10 3 -10 8 -18 11 -18z m137 20 c-3
-5 -11 -10 -16 -10 -6 0 -7 5 -4 10 3 6 11 10 16 10 6 0 7 -4 4 -10z m50 -9
c-3 -6 -11 -11 -17 -11 -6 0 -6 6 2 15 14 17 26 13 15 -4z m-2430 -90 c-3 -6
-11 -11 -17 -11 -6 0 -6 6 2 15 14 17 26 13 15 -4z m2045 -41 c0 -5 -4 -10
-10 -10 -5 0 -10 5 -10 10 0 6 5 10 10 10 6 0 10 -4 10 -10z m50 -10 c0 -5 -7
-10 -15 -10 -8 0 -15 5 -15 10 0 6 7 10 15 10 8 0 15 -4 15 -10z m110 -9 c7
-13 7 -22 0 -26 -15 -9 -30 4 -30 26 0 25 16 25 30 0z m160 9 c0 -5 -5 -10
-11 -10 -5 0 -7 5 -4 10 3 6 8 10 11 10 2 0 4 -4 4 -10z m-265 -40 c-3 -5 -16
-10 -28 -10 -18 0 -19 2 -7 10 20 13 43 13 35 0z m97 -26 c-12 -8 -27 -12 -33
-8 -14 8 8 24 36 24 18 0 18 -1 -3 -16z m-112 -10 c0 -3 -5 -14 -10 -25 -16
-28 -30 -23 -17 6 11 22 27 34 27 19z m302 -26 c-7 -7 -12 -20 -12 -29 0 -9
-9 -19 -20 -22 -13 -3 -18 -1 -14 6 10 17 47 57 53 57 3 0 0 -5 -7 -12z m-22
-132 c0 -3 -4 -8 -10 -11 -5 -3 -10 -1 -10 4 0 6 5 11 10 11 6 0 10 -2 10 -4z
m-198 -118 c-7 -7 -12 -8 -12 -2 0 14 12 26 19 19 2 -3 -1 -11 -7 -17z m158 3
c0 -5 -7 -11 -15 -15 -15 -5 -20 5 -8 17 9 10 23 9 23 -2z m80 -31 c-10 -19
-58 -46 -66 -37 -7 7 48 57 62 57 12 0 13 -4 4 -20z m-3570 -840 c0 -5 -5 -10
-11 -10 -5 0 -7 5 -4 10 3 6 8 10 11 10 2 0 4 -4 4 -10z m-45 -929 c-3 -6 -11
-11 -17 -11 -6 0 -6 6 2 15 14 17 26 13 15 -4z"/>
<path d="M6280 6724 c-19 -14 -35 -29 -35 -34 0 -9 -64 -107 -149 -229 -25
-36 -44 -67 -42 -69 9 -8 48 21 67 51 18 28 20 29 14 7 -5 -19 -4 -21 4 -10 6
8 8 23 5 34 -4 12 3 27 23 45 16 14 48 53 70 87 23 33 58 73 79 89 26 20 33
30 23 33 -8 3 -16 8 -19 12 -3 4 -21 -3 -40 -16z"/>
<path d="M5990 6335 c-13 -14 -21 -28 -18 -31 8 -8 43 15 57 37 17 29 -10 24
-39 -6z"/>
<path d="M5917 6252 c-15 -15 -27 -33 -27 -39 0 -7 -25 -42 -55 -80 -30 -37
-59 -81 -65 -98 l-10 -29 31 29 c25 25 145 185 173 233 14 23 -20 12 -47 -16z"/>
<path d="M5705 5943 c-29 -32 -84 -123 -75 -123 12 0 50 50 50 67 0 7 6 16 14
19 19 7 50 54 36 54 -5 0 -17 -8 -25 -17z"/>
<path d="M8061 8881 c-8 -5 -15 -20 -17 -33 -1 -12 -5 -41 -8 -63 -6 -37 -5
-36 19 20 27 64 30 90 6 76z"/>
<path d="M6950 5300 c0 -5 5 -10 10 -10 6 0 10 5 10 10 0 6 -4 10 -10 10 -5 0
-10 -4 -10 -10z"/>
<path d="M7045 4650 c-3 -5 -2 -10 4 -10 5 0 13 5 16 10 3 6 2 10 -4 10 -5 0
-13 -4 -16 -10z"/>
<path d="M5613 4628 c-43 -9 -55 -24 -29 -34 20 -8 91 13 106 31 10 13 9 15
-11 14 -13 -1 -43 -5 -66 -11z"/>
<path d="M6953 4613 c9 -2 23 -2 30 0 6 3 -1 5 -18 5 -16 0 -22 -2 -12 -5z"/>
<path d="M6882 4570 l-32 -18 27 -5 c16 -3 35 -1 43 5 12 8 12 9 -2 4 -10 -3
-18 -3 -18 1 0 3 8 12 18 19 24 19 4 15 -36 -6z"/>
<path d="M6823 4538 c-3 -6 -1 -8 5 -4 5 3 12 2 14 -4 2 -5 9 -6 16 -1 10 6 9
10 -7 14 -12 3 -24 0 -28 -5z"/>
<path d="M6925 4410 c-3 -5 -1 -10 4 -10 6 0 11 5 11 10 0 6 -2 10 -4 10 -3 0
-8 -4 -11 -10z"/>
<path d="M6749 4394 c-12 -14 -11 -16 5 -13 11 2 21 10 24 17 5 17 -13 15 -29
-4z"/>
<path d="M6825 4369 c-4 -6 -5 -12 -2 -15 2 -3 7 2 10 11 7 17 1 20 -8 4z"/>
<path d="M6780 4240 c0 -5 5 -10 11 -10 5 0 7 5 4 10 -3 6 -8 10 -11 10 -2 0
-4 -4 -4 -10z"/>
<path d="M6758 4163 c7 -3 16 -2 19 1 4 3 -2 6 -13 5 -11 0 -14 -3 -6 -6z"/>
<path d="M6775 4110 c-3 -5 -2 -10 4 -10 5 0 13 5 16 10 3 6 2 10 -4 10 -5 0
-13 -4 -16 -10z"/>
<path d="M4126 3713 c-6 -14 -5 -15 5 -6 7 7 10 15 7 18 -3 3 -9 -2 -12 -12z"/>
<path d="M3886 2911 c-4 -7 -5 -15 -2 -18 9 -9 19 4 14 18 -4 11 -6 11 -12 0z"/>
<path d="M2945 1760 c-3 -5 -2 -10 4 -10 5 0 13 5 16 10 3 6 2 10 -4 10 -5 0
-13 -4 -16 -10z"/>
</g>
</svg>
