<svg xmlns="http://www.w3.org/2000/svg" viewBox="0 0 189.8 14.2"><title>Asset 1</title><g id="Layer_2" data-name="Layer 2"><g id="Layer_1-2" data-name="Layer 1"><g id="Layer_2-2" data-name="Layer 2"><g id="Layer_1-2-2" data-name="Layer 1-2"><path d="M182.7,0H63.1A7.13,7.13,0,0,0,56,7.1h0a7.13,7.13,0,0,0,7.1,7.1H182.7a7.13,7.13,0,0,0,7.1-7.1h0A7.13,7.13,0,0,0,182.7,0Z"/><path d="M14.6,0H7.1A7.13,7.13,0,0,0,0,7.1H0a7.13,7.13,0,0,0,7.1,7.1h7.5a7.13,7.13,0,0,0,7.1-7.1h0A7.13,7.13,0,0,0,14.6,0Z"/></g></g></g></g></svg>