<svg xmlns="http://www.w3.org/2000/svg" viewBox="0 0 189.75 14.22"><defs><style>.cls-1{fill:#fff;}</style></defs><title>Asset 1</title><g id="Layer_2" data-name="Layer 2"><g id="Layer_1-2" data-name="Layer 1"><path class="cls-1" d="M7.11,14.22H126.69a7.11,7.11,0,0,0,7.11-7.11h0A7.11,7.11,0,0,0,126.69,0H7.11A7.11,7.11,0,0,0,0,7.11H0A7.11,7.11,0,0,0,7.11,14.22Z"/><path class="cls-1" d="M175.18,14.22h7.46a7.11,7.11,0,0,0,7.11-7.11h0A7.11,7.11,0,0,0,182.64,0h-7.46a7.11,7.11,0,0,0-7.11,7.11h0A7.11,7.11,0,0,0,175.18,14.22Z"/></g></g></svg>